# xmcd
#
# Track frame offsets: 
#        150
#        25443
#        45260
#        66133
#        83375
#        109648
#        130225
#        148413
#        172443
#        195218
#        212113
#        230733
#
# Disc length: 3321 seconds
#
# Revision: 0
# Processed by: cddbd v1.5.2PL0 Copyright (c) Steve Scherf et al.
# Submitted via: ExactAudioCopy v1.0b3
#
DISCID=a90cf70c
DTITLE=Thanh Phong, VA - Tim Ca Rung Chieu
DYEAR=1994
DGENRE=
TTITLE0=Thanh Phong,  Huong Lan - Tim ca rung chieu
TTITLE1=Thanh Phong, Thanh Tuyen - Muc anh trang vang
TTITLE2=Thanh Phong - Dung yeu toi
TTITLE3=Thanh Phong, Thanh Thuy - Khi em nhin anh
TTITLE4=Thanh Phong, Giao Linh - Ngay ay quen nhau
TTITLE5=Thanh Phong - Doi nga chia ly
TTITLE6=Thanh Phong, Thanh Tuyen - Doi chua trang diem
TTITLE7=Thanh Phong, Thanh Thuy - Dau chan ky niem
TTITLE8=Thanh Phong - Linh hon tuong da
TTITLE9=Thanh Phong, Giao Linh - Tinh yeu dai duong
TTITLE10=Thanh Phong, Huong Lan - Dam cuoi dau Xuan
TTITLE11=ban Sao Bang - Banh xe lang tu
EXTD=
EXTT0=
EXTT1=
EXTT2=
EXTT3=
EXTT4=
EXTT5=
EXTT6=
EXTT7=
EXTT8=
EXTT9=
EXTT10=
EXTT11=
PLAYORDER=
